<svg width="57" height="56" viewBox="0 0 57 56" fill="none" xmlns="http://www.w3.org/2000/svg">
<g id="Group 427319005">
<rect id="Rectangle 6438" x="0.5" width="56" height="56" rx="9" fill="white"/>
<path id="Vector" d="M41.2116 20.9825C41.2242 21.2906 41.2242 21.5841 41.2242 21.8937C41.2368 31.2441 34.6347 42.0388 22.5589 42.0388C18.9982 42.0388 15.5021 40.9304 12.5 38.8567C13.0193 38.9268 13.5386 38.9546 14.0593 38.9546C17.0095 38.9546 19.8825 37.8885 22.2081 35.9127C19.4011 35.8558 16.9323 33.88 16.0733 30.9915C17.0614 31.2018 18.0747 31.1594 19.0375 30.8659C15.9821 30.2204 13.7856 27.3188 13.773 23.9396C13.773 23.9118 13.773 23.8841 13.773 23.8564C14.6825 24.4025 15.7098 24.7106 16.7498 24.7384C13.8768 22.6647 12.98 18.5291 14.7218 15.2901C18.0621 19.7207 22.9758 22.3975 28.253 22.6925C27.7196 20.2391 28.4481 17.6588 30.1505 15.921C32.7891 13.2428 36.9477 13.383 39.4432 16.2291C40.9126 15.921 42.3288 15.3325 43.6158 14.5045C43.1218 16.1459 42.0944 17.5332 40.7302 18.4167C42.0298 18.2487 43.3042 17.8691 44.5 17.3083C43.6158 18.7394 42.4986 19.9719 41.2116 20.9825Z" fill="black"/>
</g>
</svg>
