<svg width="101" height="163" viewBox="0 0 101 163" fill="none" xmlns="http://www.w3.org/2000/svg">
<g id="Group 427319012">
<path id="Highlight 21" d="M79.9736 34.492C69.0643 49.8032 18.5609 103.075 7.27353 117.95C6.97139 118.348 0.660418 126.158 3.16942 126.531C6.72237 127.058 12.0892 123.137 15.2231 121.558C20.2722 119.015 25.2581 116.304 30.3548 113.903C31.2852 113.465 37.4788 109.635 38.5388 110.921C38.8177 111.259 28.333 126.496 27.8401 127.35C24.06 133.894 19.4854 136.408 17.9896 144.407C17.0792 149.275 26.7105 148.556 28.0499 148.078C31.815 146.734 31.2182 149.433 28.9798 152.046C27.73 153.505 25.7927 155.816 28.1929 153.015" stroke="white" stroke-width="4" stroke-linecap="round"/>
<circle id="Ellipse 35" cx="80.2392" cy="22.7654" r="20.3099" transform="rotate(1.29917 80.2392 22.7654)" fill="#FAD85D"/>
<circle id="Ellipse 36" cx="29.7686" cy="152.953" r="8.41664" transform="rotate(1.29917 29.7686 152.953)" fill="#FAD85D"/>
</g>
</svg>
