<svg width="60" height="60" viewBox="0 0 60 60" fill="none" xmlns="http://www.w3.org/2000/svg">
<circle cx="30.1081" cy="30.3006" r="28.8674" transform="rotate(0.0239569 30.1081 30.3006)" stroke="#413F38" stroke-width="1.51869"/>
<path d="M43.3719 22.2103C42.3767 22.6422 41.3237 22.9267 40.2463 23.0546C41.3788 22.392 42.2307 21.3391 42.6422 20.0933C41.5715 20.7188 40.4021 21.1575 39.1842 21.3906C38.6716 20.8529 38.055 20.4251 37.372 20.1332C36.6889 19.8412 35.9536 19.6912 35.2107 19.6923C32.2031 19.691 29.7682 22.0885 29.767 25.0453C29.7647 25.4565 29.8116 25.8666 29.9068 26.2667C27.7502 26.1647 25.6386 25.6137 23.7072 24.6488C21.7757 23.684 20.067 22.3266 18.6901 20.6636C18.2065 21.4781 17.9506 22.4075 17.949 23.3547C17.9482 25.2117 18.9164 26.8535 20.3789 27.8157C19.5121 27.7948 18.6633 27.565 17.9043 27.146L17.9043 27.2123C17.9032 29.8098 19.7813 31.9715 22.2681 32.4644C21.8004 32.5889 21.3184 32.6518 20.8344 32.6517C20.491 32.6522 20.1484 32.6187 19.8115 32.5518C20.502 34.6798 22.5136 36.2281 24.8972 36.2733C22.9597 37.7652 20.5814 38.571 18.1361 38.5641C17.702 38.5632 17.2684 38.5372 16.8374 38.4861C19.3243 40.0757 22.2156 40.9171 25.1672 40.9103C35.1902 40.9145 40.6694 32.7539 40.6724 25.6743C40.6725 25.4422 40.6665 25.2101 40.6556 24.9835C41.7187 24.2279 42.6386 23.2888 43.3719 22.2103Z" fill="#FAD85D"/>
</svg>
