<svg width="60" height="60" viewBox="0 0 60 60" fill="none" xmlns="http://www.w3.org/2000/svg">
<circle cx="29.8541" cy="30.2691" r="28.8674" transform="rotate(0.0239569 29.8541 30.2691)" stroke="#413F38" stroke-width="1.51869"/>
<g clip-path="url(#clip0_1012_703)">
<path d="M42.2243 18.9248C42.2759 18.6156 42.16 18.3021 41.9198 18.1009C41.6793 17.8997 41.3504 17.8408 41.055 17.9462L16.2921 26.7784C15.9585 26.8974 15.7281 27.204 15.7066 27.5576C15.6851 27.9112 15.8766 28.2435 16.1934 28.402L23.266 31.942C23.5498 32.084 23.8879 32.0631 24.152 31.8872L30.0258 27.9749L26.5078 32.3686C26.3529 32.562 26.2863 32.8116 26.3242 33.0566C26.3621 33.3015 26.5011 33.5192 26.7073 33.6568L37.3155 40.7353C37.565 40.9018 37.8821 40.9304 38.1575 40.8113C38.4329 40.6922 38.6289 40.4415 38.6784 40.1455L42.2243 18.9248Z" fill="#FAD85D"/>
</g>
<defs>
<clipPath id="clip0_1012_703">
<rect width="26.5278" height="26.5278" fill="white" transform="translate(15.71 16.1155) rotate(0.0239569)"/>
</clipPath>
</defs>
</svg>
