<svg width="60" height="60" viewBox="0 0 60 60" fill="none" xmlns="http://www.w3.org/2000/svg">
<circle cx="30.362" cy="30.332" r="28.8674" transform="rotate(0.0239569 30.362 30.332)" stroke="#413F38" stroke-width="1.51869"/>
<g clip-path="url(#clip0_1012_699)">
<path fill-rule="evenodd" clip-rule="evenodd" d="M30.5937 18.0984C30.312 18.0278 30.0134 18.091 29.7844 18.2697C29.5554 18.4483 29.4215 18.7225 29.4213 19.0129L29.4186 25.644C26.9443 25.7931 24.6191 26.5226 22.7298 27.6101C21.9984 26.9665 21.0121 26.6378 20.0271 26.6374C17.9204 26.6365 16.2125 28.343 16.2116 30.4497C16.211 31.8604 16.9765 33.0809 18.1095 33.7373C18.1009 33.8575 18.0966 33.9782 18.0965 34.0996C18.0955 36.4438 19.7026 38.5816 21.907 40.0807C24.1415 41.6004 27.1558 42.5922 30.3547 42.5936C33.5535 42.5949 36.5688 41.6056 38.8044 40.0878C41.0101 38.5905 42.619 36.4541 42.62 34.1098C42.62 33.9885 42.6157 33.8678 42.6073 33.7477C43.7409 33.0922 44.5075 31.8723 44.5081 30.4615C44.509 28.3548 42.8025 26.6469 40.6957 26.646C39.7108 26.6456 38.7241 26.9735 37.9923 27.6166C36.1039 26.5275 33.7791 25.7959 31.305 25.6448L31.3073 20.2218L37.0699 21.665C37.4021 22.8575 38.4961 23.7328 39.7947 23.7333C41.3574 23.734 42.6248 22.4676 42.6255 20.9049C42.6261 19.3421 41.3597 18.0747 39.797 18.0741C38.6427 18.0736 37.6496 18.7643 37.2091 19.7552L30.5937 18.0984ZM39.7955 21.8469C39.2793 21.8467 38.8602 21.4319 38.8528 20.9175L38.8526 20.9033L38.8528 20.8884C38.861 20.3744 39.2803 19.9603 39.7962 19.9605C40.3171 19.9607 40.7393 20.3832 40.7391 20.9041C40.7388 21.425 40.3163 21.8471 39.7955 21.8469ZM25.6426 33.1595L27.529 33.1603L27.5298 31.2739L25.6434 31.2731L25.6426 33.1595ZM30.3571 36.9343C28.4957 36.9335 27.3075 36.6116 26.0077 36.0632L25.2745 37.8015C26.7759 38.4348 28.2125 38.8198 30.3563 38.8207C32.5002 38.8216 33.9371 38.4378 35.4391 37.8057L34.7073 36.0669C33.407 36.6142 32.2185 36.9351 30.3571 36.9343ZM35.0747 33.1635L33.1883 33.1627L33.1891 31.2762L35.0755 31.277L35.0747 33.1635Z" fill="#FAD85D"/>
</g>
<defs>
<clipPath id="clip0_1012_699">
<rect width="28.2963" height="28.2963" fill="white" transform="translate(16.2178 16.1785) rotate(0.0239569)"/>
</clipPath>
</defs>
</svg>
